<svg preserveAspectRatio="none" overflow="visible" style="display: block;" width="33" height="33" viewBox="0 0 33 33" fill="none" xmlns="http://www.w3.org/2000/svg">
<g id="Frame">
<path id="Vector" d="M19.019 22.781C19.303 22.9114 19.6229 22.9412 19.9261 22.8655C20.2292 22.7897 20.4976 22.613 20.6869 22.3644L21.175 21.725C21.4312 21.3835 21.7633 21.1063 22.1452 20.9153C22.527 20.7244 22.9481 20.625 23.375 20.625H27.5C28.2293 20.625 28.9288 20.9147 29.4445 21.4305C29.9603 21.9462 30.25 22.6457 30.25 23.375V27.5C30.25 28.2293 29.9603 28.9288 29.4445 29.4445C28.9288 29.9603 28.2293 30.25 27.5 30.25C20.9359 30.25 14.6406 27.6424 9.99911 23.0009C5.35758 18.3594 2.75 12.0641 2.75 5.5C2.75 4.77065 3.03973 4.07118 3.55546 3.55546C4.07118 3.03973 4.77065 2.75 5.5 2.75H9.625C10.3543 2.75 11.0538 3.03973 11.5695 3.55546C12.0853 4.07118 12.375 4.77065 12.375 5.5V9.625C12.375 10.0519 12.2756 10.473 12.0847 10.8548C11.8937 11.2367 11.6165 11.5688 11.275 11.825L10.6315 12.3076C10.3791 12.5004 10.2012 12.7746 10.128 13.0836C10.0548 13.3927 10.0908 13.7175 10.23 14.003C12.1092 17.8198 15.1998 20.9066 19.019 22.781Z" stroke="#2D7BA3" stroke-width="2" stroke-linecap="round" stroke-linejoin="round"/>
</g>
</svg>
